<svg width="246" height="130" viewBox="0 0 246 130" fill="none" xmlns="http://www.w3.org/2000/svg">
<g clip-path="url(#clip0_217_518)">
<path d="M152.036 37.2603C155.594 40.0903 156.291 45.6672 156.784 49.8599C156.976 51.5699 157.049 53.2608 157.042 54.9807C157.042 55.1094 157.042 55.2381 157.042 55.3706C157.037 58.0595 156.857 60.7285 156.616 63.4054C156.602 63.5556 156.602 63.5556 156.589 63.7088C156.567 63.9512 156.544 64.1936 156.52 64.4359C156.417 65.5533 156.387 66.6621 156.383 67.7838C156.382 67.9717 156.382 68.1595 156.381 68.353C156.379 68.7497 156.378 69.1464 156.378 69.543C156.377 69.94 156.375 70.3368 156.372 70.7337C156.354 72.8666 156.391 74.9807 156.607 77.1046C156.632 77.3576 156.632 77.3576 156.658 77.6157C156.781 78.6987 157.004 79.7278 157.288 80.7791C157.339 80.9923 157.389 81.2056 157.438 81.4193C157.46 81.5161 157.483 81.6129 157.506 81.7127C157.549 81.9017 157.592 82.0909 157.635 82.2801C158.077 84.1946 158.693 86.0542 159.331 87.911C159.372 88.0304 159.413 88.1499 159.455 88.273C160.203 90.4537 161.034 92.5912 161.913 94.7222C162.162 95.3331 162.398 95.9483 162.634 96.5642C162.863 97.1591 163.096 97.752 163.33 98.3449C163.463 98.6826 163.596 99.0203 163.728 99.3579C163.818 99.5863 163.908 99.8146 163.999 100.043C164.544 101.42 165.042 102.79 165.459 104.212C165.66 104.831 165.871 105.447 166.081 106.062C166.147 106.258 166.214 106.454 166.28 106.65C166.312 106.743 166.344 106.836 166.376 106.932C166.544 107.429 166.683 107.916 166.772 108.433C166.887 108.399 166.887 108.399 167.004 108.363C167.619 108.179 168.234 107.996 168.85 107.816C168.958 107.784 169.067 107.752 169.178 107.72C169.394 107.657 169.61 107.594 169.827 107.531C170.26 107.404 170.691 107.276 171.118 107.128C173.297 106.431 175.595 105.973 177.861 105.668C178.024 105.643 178.187 105.619 178.355 105.594C180.132 105.342 181.902 105.327 183.695 105.331C184.203 105.331 184.712 105.328 185.22 105.324C187.325 105.318 189.369 105.463 191.453 105.756C192.031 105.836 192.611 105.909 193.19 105.981C194.473 106.146 195.724 106.355 196.975 106.687C196.975 106.735 196.975 106.783 196.975 106.832C196.892 106.834 196.808 106.835 196.722 106.837C195.856 106.852 194.99 106.869 194.124 106.886C193.8 106.893 193.477 106.899 193.153 106.905C192.689 106.913 192.224 106.922 191.76 106.932C191.542 106.935 191.542 106.935 191.32 106.939C191.185 106.942 191.051 106.945 190.913 106.948C190.794 106.95 190.675 106.952 190.553 106.955C190.253 106.96 190.253 106.96 189.972 107.123C189.587 107.149 189.205 107.168 188.82 107.181C188.578 107.19 188.335 107.2 188.093 107.21C187.965 107.215 187.837 107.22 187.705 107.225C184.104 107.373 180.58 107.775 177.047 108.506C176.684 108.581 176.321 108.653 175.957 108.724C174.787 108.958 173.645 109.219 172.509 109.588C172.036 109.74 171.561 109.878 171.084 110.014C170.156 110.279 169.257 110.557 168.374 110.951C168.085 111.053 168.085 111.053 167.502 111.053C167.544 111.312 167.544 111.312 167.587 111.576C168.26 115.73 168.26 115.73 168.231 116.875C168.4 116.838 168.568 116.801 168.741 116.763C178.264 114.728 187.651 116.151 196.683 119.495C196.786 119.533 196.889 119.571 196.995 119.61C197.307 119.725 197.62 119.841 197.932 119.957C198.026 119.991 198.119 120.026 198.216 120.062C199.008 120.358 199.78 120.692 200.554 121.031C201.249 121.32 201.957 121.561 202.671 121.798C203.074 121.958 203.358 122.128 203.687 122.406C202.781 122.439 201.994 122.325 201.115 122.115C200.909 122.067 200.909 122.067 200.699 122.018C199.71 121.785 198.73 121.523 197.75 121.255C193.118 119.988 188.369 119.128 183.574 118.801C183.26 118.767 183.26 118.767 182.989 118.694C182.656 118.617 182.361 118.601 182.019 118.598C181.889 118.597 181.759 118.595 181.625 118.594C181.413 118.593 181.413 118.593 181.198 118.592C180.976 118.591 180.976 118.591 180.75 118.589C180.267 118.586 179.785 118.586 179.302 118.585C179.138 118.585 178.975 118.585 178.806 118.584C176.708 118.584 174.625 118.626 172.536 118.822C172.436 118.831 172.337 118.84 172.234 118.85C171.231 118.945 170.246 119.071 169.263 119.294C168.961 119.349 168.961 119.349 168.377 119.349C168.379 119.451 168.381 119.553 168.382 119.658C168.393 120.836 168.326 121.997 168.231 123.17C168.217 123.35 168.204 123.529 168.189 123.714C168.155 124.151 168.121 124.589 168.085 125.026C168.244 125.023 168.244 125.023 168.405 125.021C172.28 124.973 176.112 125.121 179.867 126.163C180.838 126.414 181.632 126.285 182.605 126.084C184.273 125.746 185.893 125.678 187.591 125.69C187.793 125.69 187.793 125.69 187.999 125.691C190.02 125.701 191.954 125.795 193.911 126.336C194.027 126.366 194.144 126.396 194.264 126.428C198.153 127.463 201.772 129.35 203.839 132.912C204.128 133.459 204.313 134.047 204.518 134.629C204.778 135.231 205.162 135.665 205.586 136.16C206.362 137.137 206.785 138.296 207.161 139.471C207.192 139.566 207.222 139.66 207.253 139.758C208.249 143.058 207.761 146.877 206.241 149.913C205.119 151.977 203.459 153.633 201.206 154.426C199.005 154.878 197.122 154.625 195.233 153.389C195.036 153.25 194.838 153.111 194.641 152.971C194.399 152.823 194.156 152.676 193.911 152.534C193.881 152.651 193.851 152.768 193.82 152.889C193.087 154.784 191.569 156.217 189.826 157.192C189.6 157.322 189.6 157.322 189.37 157.456C187.614 158.179 185.781 158.111 184.028 157.418C183.316 157.08 182.706 156.664 182.093 156.173C182.002 156.106 181.911 156.039 181.817 155.97C181.016 155.347 180.474 154.528 179.904 153.699C179.482 153.894 179.136 154.119 178.773 154.408C178.206 154.839 177.635 155.155 176.986 155.445C176.738 155.571 176.738 155.571 176.484 155.7C174.973 156.233 173.196 155.967 171.754 155.378C169.572 154.314 168.133 152.615 167.064 150.497C166.992 150.36 166.92 150.223 166.846 150.083C166.332 149.049 166.092 147.991 165.897 146.858C165.87 146.703 165.843 146.548 165.815 146.388C165.406 142.877 165.998 139.583 168.085 136.67C168.3 136.432 168.519 136.199 168.742 135.969C169.308 135.376 169.64 134.783 169.982 134.05C170.469 133.009 171.053 132.238 171.879 131.43C171.97 131.331 172.061 131.231 172.155 131.129C173.267 129.938 174.77 128.903 176.256 128.228C176.353 128.228 176.449 128.228 176.548 128.228C176.548 128.132 176.548 128.036 176.548 127.937C176.307 127.943 176.307 127.943 176.061 127.95C175.306 127.95 174.576 127.839 173.831 127.727C171.758 127.434 169.739 127.337 167.648 127.354C167.311 128.651 166.974 129.948 166.626 131.284C127.336 131.284 88.0465 131.284 47.5659 131.284C47.2123 129.521 46.8811 127.821 46.6813 126.045C46.6573 125.838 46.6332 125.632 46.609 125.425C46.5486 124.906 46.4898 124.387 46.4319 123.868C46.3999 123.582 46.3676 123.296 46.3353 123.009C46.1376 121.251 45.9539 119.492 45.7968 117.73C45.7857 117.608 45.7747 117.486 45.7633 117.36C45.5633 115.028 45.5024 112.706 45.4986 110.366C45.4975 109.85 45.4952 109.335 45.4925 108.819C45.485 107.356 45.4779 105.892 45.4756 104.429C45.4741 103.528 45.4699 102.628 45.4638 101.727C45.462 101.387 45.4612 101.046 45.4615 100.705C45.4912 98.2458 45.4912 98.2458 44.7936 95.9161C44.7313 95.7539 44.6689 95.5917 44.6046 95.4246C43.1425 91.9997 41.4767 88.6941 39.7228 85.4111C38.0854 82.3455 36.6403 79.2447 35.4556 75.976C35.4108 75.8543 35.3661 75.7326 35.32 75.6073C34.7122 73.9421 34.2909 72.2531 33.9288 70.5192C33.8607 70.2015 33.7863 69.8866 33.7081 69.5714C33.0092 66.4993 32.9974 62.7115 34.5528 59.9294C35.6822 58.513 36.9099 57.6799 38.7288 57.3874C43.7173 56.8345 48.5422 60.038 52.7294 62.3372C54.0396 63.0561 55.3619 63.7521 56.6836 64.4496C57.8764 65.0794 59.0634 65.7166 60.2346 66.3857C60.8471 66.7333 61.4698 67.0516 62.1019 67.3614C63.039 67.8207 63.9584 68.3076 64.8742 68.8078C65.009 68.8814 65.1439 68.9551 65.2829 69.0309C65.9834 69.4142 66.6825 69.7998 67.3808 70.1871C68.8216 70.9835 70.2432 71.7539 71.7865 72.3373C71.9039 72.3863 72.0212 72.4353 72.1422 72.4857C74.9162 73.5094 78.0614 72.3813 80.6018 71.2401C80.946 71.0795 81.2898 70.9183 81.6335 70.7568C85.3067 69.0313 89.1127 67.781 93.089 66.9521C93.2599 66.9163 93.4307 66.8806 93.6067 66.8438C94.7135 66.6144 95.822 66.3955 96.9319 66.1823C97.4336 66.0851 97.9344 65.9843 98.4352 65.8826C99.4222 65.6854 100.412 65.5131 101.406 65.351C101.663 65.3076 101.663 65.3076 101.926 65.2633C105.577 64.676 109.24 64.7202 112.927 64.7611C113.36 64.7658 113.794 64.7696 114.228 64.7735C114.528 64.7767 114.827 64.7818 115.127 64.787C118.326 64.8194 120.517 63.8517 122.799 61.676C123.398 61.0579 123.922 60.3875 124.447 59.7072C124.845 59.1912 125.256 58.6985 125.699 58.2192C126.281 57.5883 126.807 56.926 127.333 56.2487C127.896 55.5263 128.488 54.8315 129.088 54.1398C129.601 53.549 130.093 52.946 130.579 52.333C131.006 51.8031 131.449 51.2869 131.891 50.7692C132.289 50.3023 132.678 49.8307 133.059 49.3499C133.524 48.7632 134.008 48.196 134.499 47.6306C135.084 46.9563 135.649 46.2711 136.196 45.5656C136.842 44.732 137.522 43.9325 138.219 43.1403C138.68 42.6154 139.126 42.083 139.561 41.5358C142.502 37.9386 147.441 34.1421 152.036 37.2603Z" fill="#080B10"/>
<path d="M219.007 15.8647C219.165 15.8666 219.165 15.8666 219.327 15.8686C225.574 15.9617 232.048 18.8992 236.516 23.1421C236.69 23.2989 236.69 23.2989 236.867 23.4588C238.916 25.3692 240.232 28.028 240.893 30.7106C240.946 30.8859 240.998 31.0611 241.052 31.2417C241.25 32.0392 241.233 32.8407 241.231 33.658C241.233 33.8116 241.235 33.9653 241.238 34.1236C241.24 37.1275 239.831 39.6124 237.775 41.7359C236.491 42.9725 235.076 43.8153 233.452 44.5377C233.309 44.6015 233.165 44.6653 233.018 44.731C229.434 46.0705 225.907 44.5471 222.634 43.1339C222.252 42.9699 221.87 42.8074 221.488 42.6456C221.364 42.5927 221.24 42.5397 221.113 42.4852C218.319 41.3219 215.056 41.438 212.259 42.5415C209.421 43.8377 207.814 46.2939 206.705 49.0986C205.687 52.0133 205.455 55.53 206.313 58.5103C206.359 58.6709 206.406 58.8315 206.453 58.997C207.282 61.5539 208.857 63.7595 210.399 65.9332C212.426 68.8119 214.296 71.7826 216.089 74.8117C216.153 74.9185 216.216 75.0254 216.282 75.1355C217.141 76.584 217.959 78.0404 218.692 79.5568C218.886 79.9577 219.085 80.3567 219.283 80.7558C221.785 85.8256 224.033 91.1092 225.475 96.5842C225.593 97.0073 225.727 97.4248 225.86 97.8435C226.158 98.8014 226.384 99.7661 226.594 100.746C226.67 101.096 226.746 101.445 226.822 101.795C226.858 101.962 226.894 102.129 226.931 102.301C227.013 102.672 227.1 103.041 227.192 103.41C227.755 105.683 228.011 108.022 228.31 110.342C228.34 110.574 228.37 110.806 228.401 111.038C229.254 117.541 229.216 124.337 228.491 130.848C220.45 130.848 212.409 130.848 204.125 130.848C204.288 130.031 204.435 129.305 204.672 128.525C205.096 127.098 205.3 125.654 205.474 124.18C205.492 124.028 205.492 124.028 205.511 123.872C206.398 116.315 205.95 108.234 203.396 101.009C203.259 100.602 203.143 100.193 203.031 99.7794C201.241 93.3118 197.553 87.5355 193.911 81.9687C193.153 80.809 192.425 79.6313 191.7 78.4515C191.461 78.0633 191.221 77.6757 190.981 77.2881C189.67 75.1678 188.42 73.0278 187.255 70.823C187.074 70.4836 186.889 70.147 186.701 69.8113C184.597 66.0204 182.907 61.7541 182.093 57.4915C182.064 57.3441 182.036 57.1968 182.007 57.045C181.41 53.8351 180.558 48.6183 182.093 45.5565C182.125 45.3082 182.155 45.0594 182.184 44.8106C182.331 43.8117 182.594 42.8591 182.877 41.8905C182.919 41.7437 182.962 41.5969 183.006 41.4456C183.284 40.5124 183.609 39.6122 183.989 38.7158C184.056 38.5578 184.056 38.5578 184.124 38.3966C185.457 35.269 187.071 32.3264 189.242 29.6918C189.381 29.5153 189.381 29.5153 189.524 29.3353C190.887 27.6292 192.379 26.0002 194.057 24.5976C194.132 24.5338 194.207 24.47 194.285 24.4042C197.914 21.3405 202.116 19.1352 206.605 17.6113C206.806 17.5396 207.007 17.4678 207.209 17.3958C211.019 16.1051 215.015 15.7819 219.007 15.8647Z" fill="#080B10"/>
<path d="M24.7769 125.699C24.8909 125.699 25.0048 125.698 25.1222 125.698C30.9648 125.7 36.7172 127.3 41.0621 131.337C41.961 132.256 42.6337 133.282 43.1732 134.444C43.4988 135.117 43.8721 135.633 44.3923 136.169C47.0367 139.081 47.3036 142.677 47.1281 146.421C46.9067 148.817 45.8108 150.938 44.3559 152.825C44.1888 153.05 44.1888 153.05 44.0185 153.28C43.9372 153.37 43.8559 153.46 43.7722 153.553C43.6759 153.553 43.5796 153.553 43.4804 153.553C43.4804 153.649 43.4804 153.745 43.4804 153.844C41.8465 155.2 39.9475 155.999 37.8003 155.932C36.2099 155.754 34.6643 155.106 33.5319 153.958C33.294 153.665 33.294 153.665 32.9751 153.699C32.7687 153.929 32.7687 153.929 32.5647 154.226C32.4861 154.333 32.4075 154.44 32.3265 154.55C32.2516 154.653 32.1768 154.757 32.0996 154.863C30.9768 156.399 29.1067 157.573 27.2203 157.879C25.0641 158.115 23.3423 157.618 21.6308 156.301C20.562 155.399 19.2044 153.985 18.968 152.534C18.5031 152.803 18.06 153.094 17.6183 153.398C15.8901 154.553 14.1553 154.768 12.1103 154.572C9.92494 154.039 8.21782 152.44 7.04419 150.595C5.26198 147.665 4.71227 143.945 5.41681 140.59C5.50062 140.3 5.5923 140.012 5.69038 139.726C5.73503 139.589 5.73503 139.589 5.78058 139.45C6.25408 138.012 6.84828 136.742 7.78837 135.539C8.19683 135.014 8.417 134.526 8.63589 133.895C9.80613 130.731 12.5733 128.844 15.5288 127.471C16.5413 127.019 17.5671 126.681 18.6431 126.416C18.8587 126.363 19.0738 126.307 19.2883 126.249C21.1089 125.765 22.9043 125.699 24.7769 125.699Z" fill="#080B10"/>
<path d="M111.355 117.557C111.517 117.551 111.517 117.551 111.683 117.545C112.615 117.534 113.206 117.778 113.911 118.407C114.741 119.463 114.777 120.37 114.683 121.678C114.29 124.17 112.228 127.628 110.306 129.247C108.778 130.175 107.322 130.517 105.548 130.197C102.929 129.299 99.6898 126.514 98.4055 124.107C98.0088 123.097 97.9941 121.877 98.4055 120.878C99.5154 119.797 100.625 119.38 102.163 119.222C103.442 119.076 104.694 118.826 105.953 118.562C106.409 118.467 106.865 118.374 107.321 118.282C107.641 118.216 107.961 118.151 108.282 118.085C108.435 118.054 108.588 118.023 108.746 117.99C108.888 117.961 109.03 117.932 109.176 117.901C109.303 117.875 109.43 117.849 109.56 117.822C110.182 117.673 110.699 117.566 111.355 117.557Z" fill="#FAFAFA"/>
<path d="M79.226 102.56C79.5874 102.802 79.9189 103.056 80.249 103.339C80.3429 103.418 80.4368 103.498 80.5335 103.579C81.7762 104.722 82.6324 106.371 82.7699 108.056C82.7835 109.366 82.6571 110.458 82.0547 111.626C81.9759 111.78 81.9759 111.78 81.8956 111.937C81.4869 112.712 81.0474 113.37 80.395 113.964C80.2996 114.053 80.2042 114.142 80.106 114.233C78.4302 115.665 76.3968 116.001 74.2668 115.856C72.4879 115.576 70.8481 114.407 69.7471 113.018C68.7509 111.563 68.3034 110.045 68.4305 108.288C68.575 108.336 68.7194 108.384 68.8683 108.433C68.8683 108.529 68.8683 108.625 68.8683 108.724C69.7311 109.066 70.5621 109.339 71.4946 109.161C72.1592 108.869 72.7296 108.487 73.0996 107.851C73.1498 107.765 73.2 107.679 73.2518 107.59C73.5573 106.887 73.5234 106.048 73.274 105.33C72.8304 104.527 72.1838 104.123 71.3487 103.776C71.1554 103.722 70.9611 103.672 70.7651 103.63C71.0254 102.851 71.8172 102.546 72.516 102.175C74.756 101.215 77.1072 101.396 79.226 102.56Z" fill="#080B10"/>
<path d="M136.314 92.6595C137.811 93.6428 139.045 95.0336 139.571 96.7731C139.691 97.3627 139.66 97.9637 139.661 98.5632C139.663 98.6954 139.664 98.8276 139.666 98.9638C139.671 101.07 138.956 102.483 137.516 104.019C136.031 105.405 134.487 105.891 132.493 105.877C132.344 105.88 132.195 105.883 132.042 105.886C130.214 105.885 128.844 105.128 127.5 103.932C126.299 102.707 125.453 100.946 125.471 99.2273C125.473 98.992 125.473 98.992 125.475 98.752C125.477 98.6327 125.479 98.5134 125.48 98.3904C125.802 98.5452 126.079 98.6929 126.365 98.9089C127.127 99.2808 127.948 99.4012 128.769 99.1506C129.574 98.7518 130.138 98.2255 130.441 97.3716C130.585 96.5604 130.553 95.8584 130.14 95.1338C129.69 94.5178 129.152 93.9988 128.398 93.8022C128.089 93.7521 128.089 93.7521 127.669 93.7329C129.944 91.2502 133.445 91.0901 136.314 92.6595Z" fill="#080B10"/>
<path d="M137.515 90.8736C139.693 92.2935 141.273 94.3701 141.822 96.9349C141.878 97.5761 141.877 98.2111 141.868 98.8543C141.868 99.0197 141.869 99.1851 141.869 99.3555C141.855 101.569 140.932 103.637 139.37 105.217C139.264 105.318 139.159 105.418 139.05 105.522C138.964 105.612 138.878 105.703 138.789 105.796C137.205 107.348 134.866 108.125 132.694 108.178C130.062 108.145 127.704 107.216 125.853 105.344C124.176 103.525 123.23 101.185 123.246 98.7088C123.247 98.5802 123.248 98.4516 123.249 98.319C123.29 96.111 124.17 94.2226 125.626 92.5685C125.711 92.47 125.796 92.3715 125.884 92.27C127.171 90.8804 128.767 90.1094 130.587 89.6575C130.68 89.6323 130.772 89.607 130.868 89.5809C133.14 89.0634 135.556 89.7176 137.515 90.8736ZM127.961 93.2962C127.816 93.5124 127.816 93.5124 127.669 93.7329C127.881 93.7374 127.881 93.7374 128.098 93.742C128.889 93.8545 129.442 94.3597 130.004 94.8972C130.484 95.5369 130.535 96.1796 130.51 96.9611C130.372 97.7831 129.941 98.3723 129.304 98.897C128.503 99.3797 127.682 99.3351 126.794 99.1181C126.455 98.9541 126.215 98.7729 125.918 98.5359C125.774 98.4879 125.629 98.4399 125.48 98.3904C125.317 100.405 126.05 102.208 127.317 103.77C128.412 104.945 129.944 105.804 131.562 105.876C131.863 105.879 132.164 105.879 132.466 105.877C132.615 105.88 132.765 105.883 132.919 105.886C133.963 105.885 134.758 105.687 135.694 105.231C135.897 105.136 135.897 105.136 136.104 105.04C137.559 104.213 138.946 102.809 139.422 101.169C139.817 99.5815 139.995 97.4153 139.233 95.9235C139.172 95.825 139.112 95.7265 139.05 95.625C138.988 95.516 138.926 95.407 138.862 95.2947C137.815 93.5865 136.355 92.4222 134.426 91.8589C132.078 91.3553 129.842 91.7248 127.961 93.2962Z" fill="#FAFAFA"/>
<path d="M80.8328 101.01C83.0674 102.677 84.3907 104.836 84.9182 107.56C85.2362 110.2 84.2884 112.729 82.7022 114.801C81.2096 116.529 79.0209 117.866 76.7013 118.069C76.3392 118.084 75.979 118.087 75.6166 118.085C75.488 118.084 75.3595 118.083 75.227 118.082C72.8396 118.038 70.9371 117.133 69.1602 115.565C69.069 115.489 68.9777 115.414 68.8838 115.336C67.3637 113.977 66.3392 111.618 66.2262 109.607C66.2173 109.294 66.2149 108.982 66.2147 108.67C66.2129 108.565 66.2111 108.461 66.2093 108.354C66.2029 106.008 67.3449 103.777 68.9254 102.095C72.1647 99.0572 77.0743 98.5662 80.8328 101.01ZM70.9111 103.193C70.8629 103.338 70.8148 103.482 70.7652 103.63C70.9105 103.683 70.9105 103.683 71.0587 103.737C71.9561 104.077 72.6488 104.364 73.2182 105.167C73.498 105.975 73.5665 106.79 73.2684 107.605C72.8538 108.343 72.287 108.853 71.4947 109.161C70.616 109.323 69.654 109.149 68.8684 108.724C68.7961 108.508 68.7961 108.508 68.7225 108.288C68.6262 108.288 68.5299 108.288 68.4306 108.288C68.2922 110.202 68.8421 111.877 70.0356 113.382C71.2548 114.739 72.9353 115.766 74.7822 115.891C77.114 115.934 78.9706 115.318 80.7233 113.727C82.2283 112.149 82.7919 110.172 82.77 108.056C82.6193 106.208 81.6365 104.595 80.3079 103.344C78.7733 102.047 76.9227 101.468 74.9155 101.537C73.4302 101.7 72.0705 102.242 70.9111 103.193Z" fill="#FAFAFA"/>
<path d="M155.829 68.262C156.133 68.5073 156.256 68.6372 156.325 69.0274C156.327 69.1557 156.328 69.284 156.33 69.4162C156.333 69.5619 156.336 69.7076 156.339 69.8576C156.34 70.0146 156.341 70.1715 156.342 70.3332C156.344 70.4941 156.347 70.655 156.35 70.8208C156.357 71.3354 156.362 71.85 156.367 72.3646C156.372 72.7132 156.377 73.0618 156.382 73.4104C156.395 74.2656 156.405 75.1208 156.413 75.976C156.365 75.976 156.317 75.976 156.267 75.976C156.135 75.1952 156.103 74.4473 156.112 73.6563C156.113 73.5429 156.113 73.4295 156.114 73.3126C156.116 73.036 156.118 72.7594 156.121 72.4829C156.025 72.4829 155.928 72.4829 155.829 72.4829C155.8 71.9705 155.773 71.458 155.747 70.9455C155.739 70.8013 155.731 70.6571 155.722 70.5086C155.684 69.7345 155.684 69.0243 155.829 68.262Z" fill="#080B10"/>
<path d="M54.1316 63.1678C56.6617 64.4158 56.6617 64.4158 57.7793 65.0599C57.6349 65.132 57.6349 65.132 57.4875 65.2055C57.4875 65.3015 57.4875 65.3976 57.4875 65.4966C56.9641 65.3026 56.49 65.0845 56.0284 64.7688C56.0284 64.6728 56.0284 64.5767 56.0284 64.4777C55.884 64.5257 55.7395 64.5738 55.5907 64.6233C55.5907 64.5272 55.5907 64.4311 55.5907 64.3322C55.4463 64.3802 55.3018 64.4282 55.153 64.4777C55.153 64.3817 55.153 64.2856 55.153 64.1866C54.9769 64.1596 54.9769 64.1596 54.7973 64.132C54.6739 64.102 54.5506 64.072 54.4234 64.0411C54.3753 63.945 54.3271 63.849 54.2775 63.75C54.1812 63.75 54.0849 63.75 53.9857 63.75C54.0339 63.5579 54.082 63.3657 54.1316 63.1678Z" fill="#080B10"/>
<path d="M200.185 120.95C201.008 121.179 201.759 121.428 202.52 121.824C202.906 121.978 203.295 122.119 203.687 122.26C203.687 122.308 203.687 122.356 203.687 122.406C202.788 122.439 202.006 122.325 201.133 122.115C201.013 122.087 200.893 122.059 200.77 122.031C200.477 121.963 200.185 121.893 199.893 121.824C199.989 121.728 200.086 121.631 200.185 121.533C200.185 121.34 200.185 121.148 200.185 120.95Z" fill="#080B10"/>
<path d="M225.427 96.9349C225.778 97.2852 225.834 97.5337 225.965 98.0084C226.005 98.1476 226.044 98.2868 226.085 98.4302C226.157 98.83 226.172 99.0391 226.011 99.4093C225.866 99.5053 225.722 99.6014 225.573 99.7003C225.525 99.6043 225.477 99.5082 225.427 99.4093C225.523 99.4093 225.62 99.4093 225.719 99.4093C225.719 99.3132 225.719 99.2171 225.719 99.1182C225.623 99.1182 225.526 99.1182 225.427 99.1182C225.46 99.0191 225.493 98.92 225.527 98.818C225.591 98.2223 225.398 97.9055 225.135 97.3716C225.232 97.3235 225.328 97.2755 225.427 97.226C225.427 97.13 225.427 97.0339 225.427 96.9349Z" fill="#080B10"/>
<path d="M205.584 51.9606C205.68 52.0087 205.776 52.0567 205.875 52.1062C205.896 53.3749 205.834 54.6261 205.729 55.8904C205.681 55.8904 205.633 55.8904 205.584 55.8904C205.584 55.0739 205.584 54.2574 205.584 53.4161C205.487 53.4161 205.391 53.4161 205.292 53.4161C205.312 53.2007 205.334 52.9855 205.356 52.7702C205.367 52.6504 205.379 52.5305 205.391 52.4069C205.438 52.1062 205.438 52.1062 205.584 51.9606Z" fill="#080B10"/>
<path d="M186.178 106.832C188.056 106.904 188.056 106.904 189.971 106.978C189.971 107.026 189.971 107.074 189.971 107.123C187.733 107.195 187.733 107.195 185.448 107.269C185.448 107.221 185.448 107.173 185.448 107.123C185.689 107.075 185.93 107.027 186.178 106.978C186.178 106.93 186.178 106.882 186.178 106.832Z" fill="#080B10"/>
<path d="M74.4128 99.1182C74.8454 99.11 75.2428 99.1245 75.6712 99.1637C75.7882 99.1726 75.9052 99.1815 76.0257 99.1907C76.3151 99.213 76.6042 99.2381 76.8932 99.2637C76.9414 99.3598 76.9895 99.4558 77.0391 99.5548C76.0761 99.5548 75.1131 99.5548 74.121 99.5548C74.2173 99.4107 74.3136 99.2666 74.4128 99.1182Z" fill="#080B10"/>
<path d="M195.735 106.441C195.845 106.452 195.955 106.464 196.068 106.476C196.391 106.541 196.391 106.541 196.975 106.832C196.108 106.832 195.242 106.832 194.349 106.832C194.495 106.541 194.495 106.541 194.755 106.447C195.101 106.392 195.387 106.401 195.735 106.441Z" fill="#080B10"/>
<path d="M72.0783 72.4828C72.2318 72.5249 72.3852 72.5669 72.5434 72.6102C73.4401 72.8522 74.3646 72.8703 75.2882 72.9195C75.2882 72.9675 75.2882 73.0156 75.2882 73.065C74.881 73.0933 74.4737 73.1205 74.0663 73.1469C73.9504 73.1551 73.8346 73.1632 73.7152 73.1716C72.8409 73.2271 72.8409 73.2271 72.516 73.065C72.516 72.969 72.516 72.8729 72.516 72.7739C72.3234 72.7259 72.1308 72.6779 71.9324 72.6284C71.9805 72.5804 72.0287 72.5323 72.0783 72.4828Z" fill="#080B10"/>
<path d="M140.655 103.339C140.871 103.77 140.779 104.047 140.655 104.503C140.399 104.658 140.399 104.658 140.071 104.794C139.822 105.031 139.578 105.273 139.342 105.522C139.245 105.474 139.149 105.426 139.05 105.377C139.129 105.291 139.208 105.204 139.29 105.116C139.394 105.001 139.499 104.886 139.606 104.767C139.709 104.654 139.813 104.541 139.919 104.424C140.207 104.078 140.434 103.73 140.655 103.339Z" fill="#080B10"/>
<path d="M64.637 68.8442C65.1878 69.0029 65.581 69.1219 65.9501 69.5719C65.6612 69.716 65.6612 69.716 65.3665 69.863C65.3003 69.791 65.2341 69.7189 65.1659 69.6447C64.9468 69.3935 64.9468 69.3935 64.637 69.4264C64.637 69.2342 64.637 69.0421 64.637 68.8442Z" fill="#080B10"/>
<path d="M82.5836 107.56C82.6317 107.56 82.6799 107.56 82.7295 107.56C82.7564 109.544 82.7564 109.544 82.5836 110.471C82.5354 110.327 82.4873 110.183 82.4377 110.034C82.3414 110.034 82.2451 110.034 82.1459 110.034C82.191 109.923 82.2362 109.812 82.2827 109.698C82.487 108.99 82.534 108.292 82.5836 107.56Z" fill="#080B10"/>
<path d="M202.228 121.824C202.781 121.969 203.208 122.087 203.687 122.406C203.028 122.417 202.433 122.421 201.79 122.26C201.934 122.212 202.079 122.164 202.228 122.115C202.228 122.019 202.228 121.923 202.228 121.824Z" fill="#080B10"/>
<path d="M201.352 121.387C201.708 121.505 201.708 121.505 202.082 121.678C202.13 121.822 202.178 121.966 202.228 122.115C201.698 122.067 201.168 122.019 200.623 121.969C200.623 121.921 200.623 121.873 200.623 121.824C200.864 121.824 201.104 121.824 201.352 121.824C201.352 121.68 201.352 121.535 201.352 121.387Z" fill="#080B10"/>
<path d="M225.427 96.9349C225.866 97.3725 225.806 97.7826 225.865 98.3904C225.72 98.3424 225.576 98.2944 225.427 98.2449C225.254 97.7264 225.254 97.7264 225.135 97.226C225.232 97.226 225.328 97.226 225.427 97.226C225.427 97.13 225.427 97.0339 225.427 96.9349Z" fill="#080B10"/>
<path d="M111.765 127.354C111.813 127.451 111.861 127.547 111.911 127.646C111.646 128.32 111.335 128.687 110.744 129.101C110.647 129.053 110.551 129.005 110.452 128.956C110.885 128.427 111.319 127.899 111.765 127.354Z" fill="#080B10"/>
<path d="M213.9 16.1558C213.9 16.2039 213.9 16.2519 213.9 16.3014C213.66 16.3014 213.419 16.3014 213.171 16.3014C213.123 16.4455 213.075 16.5896 213.025 16.738C212.88 16.69 212.736 16.642 212.587 16.5925C212.344 16.5418 212.101 16.4929 211.858 16.4469C211.858 16.3989 211.858 16.3509 211.858 16.3014C212.553 16.1627 213.195 16.1437 213.9 16.1558Z" fill="#080B10"/>
<path d="M70.1815 71.7551C71.0205 72.0098 71.0205 72.0098 71.3488 72.3373C71.108 72.3853 70.8673 72.4334 70.6192 72.4829C70.6192 72.3868 70.6192 72.2907 70.6192 72.1918C70.4748 72.1918 70.3303 72.1918 70.1815 72.1918C70.1815 72.0477 70.1815 71.9036 70.1815 71.7551Z" fill="#080B10"/>
<path d="M193.182 106.25C193.807 106.298 194.433 106.346 195.078 106.396C194.528 106.67 194.347 106.759 193.765 106.687C193.573 106.543 193.38 106.398 193.182 106.25Z" fill="#080B10"/>
<path d="M199.31 120.95C199.598 120.95 199.887 120.95 200.185 120.95C200.233 121.19 200.281 121.431 200.331 121.678C199.898 121.606 199.898 121.606 199.455 121.533C199.552 121.436 199.648 121.34 199.747 121.241C199.603 121.145 199.458 121.049 199.31 120.95Z" fill="#080B10"/>
<path d="M56.904 64.7689C57.1929 64.8649 57.4818 64.961 57.7794 65.06C57.635 65.132 57.635 65.132 57.4876 65.2055C57.4876 65.3016 57.4876 65.3976 57.4876 65.4966C57.1265 65.3525 57.1265 65.3525 56.7581 65.2055C56.8062 65.0614 56.8544 64.9173 56.904 64.7689Z" fill="#080B10"/>
<path d="M46.5445 59.238C47.3834 59.4927 47.3834 59.4927 47.7117 59.8202C47.5673 59.8683 47.4228 59.9163 47.274 59.9658C47.1296 59.8697 46.9851 59.7737 46.8363 59.6747C46.6918 59.6747 46.5474 59.6747 46.3986 59.6747C46.4467 59.5306 46.4949 59.3865 46.5445 59.238Z" fill="#080B10"/>
<path d="M62.7403 67.8253C63.1014 67.9694 63.1014 67.9694 63.4698 68.1164C63.2772 68.2605 63.0846 68.4046 62.8862 68.5531C62.7899 68.505 62.6936 68.457 62.5944 68.4075C62.6425 68.2154 62.6907 68.0233 62.7403 67.8253Z" fill="#080B10"/>
<path d="M171.149 125.171C171.583 125.171 172.016 125.171 172.463 125.171C172.27 125.315 172.077 125.459 171.879 125.608C171.879 125.512 171.879 125.416 171.879 125.317C171.638 125.413 171.397 125.509 171.149 125.608C171.149 125.464 171.149 125.32 171.149 125.171Z" fill="#080B10"/>
<path d="M125.48 98.3904C125.625 98.4384 125.769 98.4864 125.918 98.5359C125.822 99.0643 125.726 99.5926 125.626 100.137C125.578 100.137 125.53 100.137 125.48 100.137C125.48 99.5606 125.48 98.9842 125.48 98.3904Z" fill="#080B10"/>
<path d="M58.9466 65.7877C59.3296 65.9241 59.3296 65.9241 59.6761 66.0788C59.6761 66.1748 59.6761 66.2709 59.6761 66.3699C59.3296 66.3971 59.3296 66.3971 58.9466 66.3699C58.8503 66.2258 58.754 66.0817 58.6548 65.9332C58.7511 65.8852 58.8474 65.8371 58.9466 65.7877Z" fill="#080B10"/>
<path d="M54.1316 63.1678C54.4927 63.3119 54.4927 63.3119 54.8612 63.4589C54.7167 63.651 54.5723 63.8431 54.4234 64.0411C54.3753 63.945 54.3271 63.849 54.2775 63.75C54.1812 63.75 54.0849 63.75 53.9857 63.75C54.0339 63.5579 54.082 63.3657 54.1316 63.1678Z" fill="#080B10"/>
</g>
<defs>
<clipPath id="clip0_217_518">
<rect width="246" height="130" fill="white"/>
</clipPath>
</defs>
</svg>
