<svg width="205" height="35" viewBox="0 0 205 35" fill="none" xmlns="http://www.w3.org/2000/svg">
<path d="M19.6574 0.000839494C19.7713 0.000562461 19.8853 0.000285428 20.0027 0C25.8453 0.0016073 31.5977 1.60173 35.9426 5.63912C36.8414 6.55751 37.5142 7.58445 38.0537 8.74622C38.3793 9.41868 38.7526 9.93496 39.2728 10.4712C41.9172 13.3826 42.1841 16.9786 42.0086 20.7232C41.7872 23.1187 40.6913 25.2403 39.2364 27.1273C39.0693 27.3525 39.0693 27.3525 38.8989 27.5822C38.8177 27.6722 38.7364 27.7623 38.6527 27.8551C38.5564 27.8551 38.4601 27.8551 38.3609 27.8551C38.3609 27.9511 38.3609 28.0472 38.3609 28.1462C36.727 29.5022 34.828 30.301 32.6808 30.2339C31.0904 30.0563 29.5448 29.4077 28.4124 28.2599C28.1745 27.9667 28.1745 27.9667 27.8556 28.0006C27.6492 28.2313 27.6492 28.2313 27.4452 28.5282C27.3666 28.6352 27.288 28.7421 27.207 28.8523C27.1321 28.9555 27.0573 29.0587 26.9801 29.165C25.8572 30.7012 23.9872 31.8753 22.1008 32.1806C19.9446 32.417 18.2228 31.9197 16.5113 30.6029C15.4425 29.7011 14.0849 28.2874 13.8485 26.8362C13.3836 27.1055 12.9405 27.3956 12.4988 27.7004C10.7706 28.8555 9.03579 29.0702 6.99081 28.8739C4.80543 28.3409 3.09832 26.742 1.92469 24.8965C0.142476 21.9674 -0.407241 18.2473 0.2973 14.8922C0.381114 14.6019 0.472792 14.3138 0.570876 14.028C0.615523 13.8912 0.615523 13.8912 0.661071 13.7516C1.13457 12.3137 1.72877 11.0441 2.66887 9.84068C3.07732 9.31572 3.2975 8.8277 3.51638 8.19701C4.68662 5.03314 7.45376 3.14589 10.4093 1.7725C11.4218 1.32127 12.4476 0.983101 13.5236 0.717848C13.7392 0.664587 13.9543 0.609025 14.1688 0.551122C15.9894 0.0674289 17.7848 0.00132849 19.6574 0.000839494Z" fill="#080B10"/>
<path d="M184.394 2.00084C184.28 2.00056 184.166 2.00029 184.048 2C178.206 2.00161 172.453 3.60173 168.109 7.63912C167.21 8.55751 166.537 9.58445 165.997 10.7462C165.672 11.4187 165.299 11.935 164.778 12.4712C162.134 15.3826 161.867 18.9786 162.043 22.7232C162.264 25.1187 163.36 27.2403 164.815 29.1273C164.982 29.3525 164.982 29.3525 165.152 29.5822C165.233 29.6722 165.315 29.7623 165.398 29.8551C165.495 29.8551 165.591 29.8551 165.69 29.8551C165.69 29.9511 165.69 30.0472 165.69 30.1462C167.324 31.5022 169.223 32.301 171.37 32.2339C172.961 32.0563 174.506 31.4077 175.639 30.2599C175.877 29.9667 175.877 29.9667 176.196 30.0006C176.402 30.2313 176.402 30.2313 176.606 30.5282C176.685 30.6352 176.763 30.7421 176.844 30.8523C176.919 30.9555 176.994 31.0587 177.071 31.165C178.194 32.7012 180.064 33.8753 181.95 34.1806C184.107 34.417 185.828 33.9197 187.54 32.6029C188.609 31.7011 189.966 30.2874 190.203 28.8362C190.668 29.1055 191.111 29.3956 191.552 29.7004C193.281 30.8555 195.015 31.0702 197.06 30.8739C199.246 30.3409 200.953 28.742 202.126 26.8965C203.909 23.9674 204.458 20.2473 203.754 16.8922C203.67 16.6019 203.578 16.3138 203.48 16.028C203.436 15.8912 203.436 15.8912 203.39 15.7516C202.917 14.3137 202.322 13.0441 201.382 11.8407C200.974 11.3157 200.754 10.8277 200.535 10.197C199.365 7.03314 196.597 5.14589 193.642 3.7725C192.629 3.32127 191.604 2.9831 190.528 2.71785C190.312 2.66459 190.097 2.60903 189.882 2.55112C188.062 2.06743 186.266 2.00133 184.394 2.00084Z" fill="#080B10"/>
</svg>
