<svg width="53" height="53" viewBox="0 0 53 53" fill="none" xmlns="http://www.w3.org/2000/svg">
<path d="M48.0312 1.24238H4.96875C3.99169 1.23244 3.05059 1.6105 2.35195 2.29361C1.65331 2.97673 1.2542 3.90909 1.24219 4.88613V48.1225C1.25637 49.0981 1.65644 50.0284 2.35484 50.7097C3.05325 51.391 3.99311 51.768 4.96875 51.758H48.0312C49.0084 51.7658 49.9488 51.3864 50.6471 50.7029C51.3454 50.0193 51.7447 49.0872 51.7578 48.1101V4.87371C51.7404 3.89954 51.3392 2.97162 50.6414 2.29164C49.9435 1.61166 49.0055 1.23459 48.0312 1.24238Z" fill="#0076B2"/>
<path d="M8.72015 20.1772H16.2188V44.3047H8.72015V20.1772ZM12.4716 8.16943C13.3316 8.16943 14.1724 8.42452 14.8874 8.90243C15.6025 9.38034 16.1597 10.0596 16.4887 10.8543C16.8176 11.6489 16.9035 12.5233 16.7354 13.3668C16.5673 14.2103 16.1528 14.9849 15.5443 15.5928C14.9359 16.2007 14.1608 16.6144 13.3172 16.7817C12.4736 16.949 11.5993 16.8623 10.8049 16.5326C10.0106 16.2029 9.33183 15.645 8.8546 14.9295C8.37737 14.214 8.12308 13.373 8.1239 12.5129C8.125 11.3606 8.58354 10.2558 9.39876 9.44137C10.214 8.62692 11.3192 8.16943 12.4716 8.16943ZM20.9226 20.1772H28.1107V23.4897H28.2101C29.2121 21.5933 31.6551 19.5934 35.303 19.5934C42.8969 19.5769 44.3047 24.5746 44.3047 31.0547V44.3047H36.806V32.566C36.806 29.7711 36.7563 26.1729 32.9097 26.1729C29.063 26.1729 28.4088 29.2204 28.4088 32.3838V44.3047H20.9226V20.1772Z" fill="white"/>
</svg>
