<svg width="48" height="46" viewBox="0 0 48 46" fill="none" xmlns="http://www.w3.org/2000/svg">
<path d="M10.9181 14.9625V46H0.60966V14.9625H10.9181Z" fill="white"/>
<path d="M11.5964 5.36122C11.5964 8.34255 9.35957 10.7225 5.76601 10.7225H5.69732C2.23685 10.7225 0 8.34255 0 5.36122C0 2.31976 2.30555 0 5.83471 0C9.36387 0 11.532 2.31546 11.5964 5.36122Z" fill="white"/>
<path d="M26.8379 28.6662V46H16.5338C16.5338 46 16.6626 17.875 16.5338 14.9625H26.8379V19.3528C28.2118 17.235 30.6633 14.2279 36.1331 14.2279C42.9166 14.2279 48 18.6612 48 28.198V46H37.6916V29.3965C37.6916 25.221 36.2018 22.3771 32.4708 22.3771C29.62 22.3771 27.9242 24.2973 27.1814 26.1489C26.9066 26.8104 26.8379 27.7383 26.8379 28.6662Z" fill="white"/>
</svg>
