<svg width="40" height="40" viewBox="0 0 40 40" fill="none" xmlns="http://www.w3.org/2000/svg">
<path d="M35.3786 9.75959V26.8389C35.3786 27.8096 34.993 28.7405 34.3067 29.4268C33.6203 30.1132 32.6894 30.4988 31.7188 30.4988H7.31971C6.34906 30.4988 5.41816 30.1132 4.73181 29.4268C4.04545 28.7405 3.65986 27.8096 3.65986 26.8389V9.75959C3.65986 8.78893 4.04545 7.85803 4.73181 7.17168C5.41816 6.48532 6.34906 6.09973 7.31971 6.09973H31.7188C32.6894 6.09973 33.6203 6.48532 34.3067 7.17168C34.993 7.85803 35.3786 8.78893 35.3786 9.75959ZM24.399 32.9387H14.6394C14.3159 32.9387 14.0056 33.0672 13.7768 33.296C13.548 33.5248 13.4195 33.8351 13.4195 34.1586C13.4195 34.4822 13.548 34.7925 13.7768 35.0213C14.0056 35.25 14.3159 35.3786 14.6394 35.3786H24.399C24.7226 35.3786 25.0329 35.25 25.2617 35.0213C25.4905 34.7925 25.619 34.4822 25.619 34.1586C25.619 33.8351 25.4905 33.5248 25.2617 33.296C25.0329 33.0672 24.7226 32.9387 24.399 32.9387Z" fill="#7B61FF"/>
</svg>
